{"accessors" : [{"bufferView" : 0, "byteOffset" : 0, "componentType" : 5123, "count" : 756, "type" : "SCALAR", "max" : [185], "min" : [0]}, {"bufferView" : 1, "byteOffset" : 0, "componentType" : 5126, "count" : 186, "type" : "VEC3", "max" : [2.8806300163269, 4.90898895263672, -0.314500987529755], "min" : [-2.8806300163269, 4.86704111099243, -0.355114012956619]}, {"bufferView" : 1, "byteOffset" : 12, "componentType" : 5126, "count" : 186, "type" : "VEC3", "max" : [0.994000017642975, 0.985677003860474, 0.992747008800507], "min" : [-0.994001984596252, -0.977891981601715, -0.989646017551422]}, {"bufferView" : 0, "byteOffset" : 1512, "componentType" : 5123, "count" : 564, "type" : "SCALAR", "max" : [161], "min" : [0]}, {"bufferView" : 2, "byteOffset" : 0, "componentType" : 5126, "count" : 162, "type" : "VEC3", "max" : [2.78866600990295, 4.90891695022583, -0.31223401427269], "min" : [-2.78866600990295, 4.86547183990479, -0.355682998895645]}, {"bufferView" : 2, "byteOffset" : 12, "componentType" : 5126, "count" : 162, "type" : "VEC3", "max" : [0.999845027923584, 0.973752975463867, 0.974162995815277], "min" : [-0.999844014644623, -0.97493702173233, -0.974829018115997]}, {"bufferView" : 0, "byteOffset" : 2640, "componentType" : 5123, "count" : 564, "type" : "SCALAR", "max" : [161], "min" : [0]}, {"bufferView" : 3, "byteOffset" : 0, "componentType" : 5126, "count" : 162, "type" : "VEC3", "max" : [2.73084306716919, 4.90752792358398, -0.306914001703262], "min" : [-2.73084306716919, 4.85340976715088, -0.35792800784111]}, {"bufferView" : 3, "byteOffset" : 12, "componentType" : 5126, "count" : 162, "type" : "VEC3", "max" : [0.995469987392426, 0.982764005661011, 0.981612026691437], "min" : [-0.995471000671387, -0.972516000270844, -0.983250021934509]}, {"bufferView" : 0, "byteOffset" : 3768, "componentType" : 5123, "count" : 756, "type" : "SCALAR", "max" : [185], "min" : [0]}, {"bufferView" : 4, "byteOffset" : 0, "componentType" : 5126, "count" : 186, "type" : "VEC3", "max" : [2.97359800338745, 4.94571685791016, -0.248120993375778], "min" : [-2.97359800338745, 4.89536190032959, -0.294907987117767]}, {"bufferView" : 4, "byteOffset" : 12, "componentType" : 5126, "count" : 186, "type" : "VEC3", "max" : [0.984193027019501, 0.998889029026031, 0.998803019523621], "min" : [-0.984197020530701, -0.994781017303467, -0.999843001365662]}, {"bufferView" : 0, "byteOffset" : 5280, "componentType" : 5123, "count" : 564, "type" : "SCALAR", "max" : [161], "min" : [0]}, {"bufferView" : 5, "byteOffset" : 0, "componentType" : 5126, "count" : 162, "type" : "VEC3", "max" : [2.86003303527832, 4.93868923187256, -0.245731994509697], "min" : [-2.86003303527832, 4.8924241065979, -0.292457014322281]}, {"bufferView" : 5, "byteOffset" : 12, "componentType" : 5126, "count" : 162, "type" : "VEC3", "max" : [0.99957001209259, 0.997920989990234, 0.997254014015198], "min" : [-0.999571979045868, -0.997704982757568, -0.998113989830017]}, {"bufferView" : 0, "byteOffset" : 6408, "componentType" : 5123, "count" : 564, "type" : "SCALAR", "max" : [161], "min" : [0]}, {"bufferView" : 6, "byteOffset" : 0, "componentType" : 5126, "count" : 162, "type" : "VEC3", "max" : [2.78617000579834, 4.93631887435913, -0.233372002840042], "min" : [-2.78617000579834, 4.87604999542236, -0.292932987213135]}, {"bufferView" : 6, "byteOffset" : 12, "componentType" : 5126, "count" : 162, "type" : "VEC3", "max" : [0.995487987995148, 0.999222993850708, 0.992067992687225], "min" : [-0.995495021343231, -0.988166987895966, -0.999328970909119]}, {"bufferView" : 0, "byteOffset" : 7536, "componentType" : 5123, "count" : 756, "type" : "SCALAR", "max" : [185], "min" : [0]}, {"bufferView" : 7, "byteOffset" : 0, "componentType" : 5126, "count" : 186, "type" : "VEC3", "max" : [3.00443601608276, 4.96319580078125, -0.169538006186485], "min" : [-3.00443601608276, 4.91144514083862, -0.217090994119644]}, {"bufferView" : 7, "byteOffset" : 12, "componentType" : 5126, "count" : 186, "type" : "VEC3", "max" : [0.978663980960846, 0.999954998493195, 0.991783976554871], "min" : [-0.978666007518768, -0.992636978626251, -0.998948991298676]}, {"bufferView" : 0, "byteOffset" : 9048, "componentType" : 5123, "count" : 564, "type" : "SCALAR", "max" : [161], "min" : [0]}, {"bufferView" : 8, "byteOffset" : 0, "componentType" : 5126, "count" : 162, "type" : "VEC3", "max" : [2.89115500450134, 4.95425319671631, -0.173307001590729], "min" : [-2.89115500450134, 4.90762090682983, -0.221107006072998]}, {"bufferView" : 8, "byteOffset" : 12, "componentType" : 5126, "count" : 162, "type" : "VEC3", "max" : [0.998679995536804, 0.993158996105194, 0.991977989673615], "min" : [-0.998679995536804, -0.998690009117126, -0.999114990234375]}, {"bufferView" : 0, "byteOffset" : 10176, "componentType" : 5123, "count" : 564, "type" : "SCALAR", "max" : [161], "min" : [0]}, {"bufferView" : 9, "byteOffset" : 0, "componentType" : 5126, "count" : 162, "type" : "VEC3", "max" : [2.8030059337616, 4.95042085647583, -0.169901996850967], "min" : [-2.8030059337616, 4.8868670463562, -0.227206006646156]}, {"bufferView" : 9, "byteOffset" : 12, "componentType" : 5126, "count" : 162, "type" : "VEC3", "max" : [0.99399197101593, 0.998025000095367, 0.998382985591888], "min" : [-0.993974983692169, -0.997832000255585, -0.998448014259338]}, {"bufferView" : 0, "byteOffset" : 11304, "componentType" : 5123, "count" : 756, "type" : "SCALAR", "max" : [185], "min" : [0]}, {"bufferView" : 10, "byteOffset" : 0, "componentType" : 5126, "count" : 186, "type" : "VEC3", "max" : [2.9639310836792, 4.95026016235352, -0.0909229964017868], "min" : [-2.9639310836792, 4.89778900146484, -0.138712003827095]}, {"bufferView" : 10, "byteOffset" : 12, "componentType" : 5126, "count" : 186, "type" : "VEC3", "max" : [0.977639019489288, 0.99619197845459, 0.998889029026031], "min" : [-0.977636992931366, -0.990917980670929, -0.997355997562408]}, {"bufferView" : 0, "byteOffset" : 12816, "componentType" : 5123, "count" : 564, "type" : "SCALAR", "max" : [161], "min" : [0]}, {"bufferView" : 11, "byteOffset" : 0, "componentType" : 5126, "count" : 162, "type" : "VEC3", "max" : [2.85103392601013, 4.94544076919556, -0.0932319983839989], "min" : [-2.85103392601013, 4.89714097976685, -0.140723004937172]}, {"bufferView" : 11, "byteOffset" : 12, "componentType" : 5126, "count" : 162, "type" : "VEC3", "max" : [0.999109983444214, 0.997247993946075, 0.999477028846741], "min" : [-0.999109983444214, -0.999391973018646, -0.998793005943298]}, {"bufferView" : 0, "byteOffset" : 13944, "componentType" : 5123, "count" : 564, "type" : "SCALAR", "max" : [161], "min" : [0]}, {"bufferView" : 12, "byteOffset" : 0, "componentType" : 5126, "count" : 162, "type" : "VEC3", "max" : [2.77714705467224, 4.94266080856323, -0.088457003235817], "min" : [-2.77714705467224, 4.87624788284302, -0.153310000896454]}, {"bufferView" : 12, "byteOffset" : 12, "componentType" : 5126, "count" : 162, "type" : "VEC3", "max" : [0.991827011108398, 0.999583005905151, 0.997537970542908], "min" : [-0.991832971572876, -0.977374970912933, -0.990540027618408]}, {"bufferView" : 0, "byteOffset" : 15072, "componentType" : 5123, "count" : 756, "type" : "SCALAR", "max" : [185], "min" : [0]}, {"bufferView" : 13, "byteOffset" : 0, "componentType" : 5126, "count" : 186, "type" : "VEC3", "max" : [2.74575209617615, 4.87954998016357, 0.0452429987490177], "min" : [-2.74575209617615, 4.817467212677, -0.042188998311758]}, {"bufferView" : 13, "byteOffset" : 12, "componentType" : 5126, "count" : 186, "type" : "VEC3", "max" : [0.994192004203796, 0.983071982860565, 0.955416977405548], "min" : [-0.994192004203796, -0.979587018489838, -0.945874989032745]}, {"bufferView" : 0, "byteOffset" : 16584, "componentType" : 5123, "count" : 564, "type" : "SCALAR", "max" : [161], "min" : [0]}, {"bufferView" : 14, "byteOffset" : 0, "componentType" : 5126, "count" : 162, "type" : "VEC3", "max" : [2.64737701416016, 4.87436199188232, -2.90000007225899E-05], "min" : [-2.64737701416016, 4.81250095367432, -0.0770929977297783]}, {"bufferView" : 14, "byteOffset" : 12, "componentType" : 5126, "count" : 162, "type" : "VEC3", "max" : [0.958032011985779, 0.973446011543274, 0.958516001701355], "min" : [-0.958039999008179, -0.97604900598526, -0.914678990840912]}, {"bufferView" : 0, "byteOffset" : 17712, "componentType" : 5123, "count" : 1380, "type" : "SCALAR", "max" : [413], "min" : [0]}, {"bufferView" : 15, "byteOffset" : 0, "componentType" : 5126, "count" : 414, "type" : "VEC3", "max" : [0.513961970806122, 0.144216001033783, 0.58805900812149], "min" : [-0.513961970806122, 0, 0.278342008590698]}, {"bufferView" : 15, "byteOffset" : 12, "componentType" : 5126, "count" : 414, "type" : "VEC3", "max" : [0.999763011932373, 0.999756991863251, 0.998700976371765], "min" : [-0.999763011932373, -1, -0.992326021194458]}, {"bufferView" : 0, "byteOffset" : 20472, "componentType" : 5123, "count" : 2664, "type" : "SCALAR", "max" : [823], "min" : [0]}, {"bufferView" : 16, "byteOffset" : 0, "componentType" : 5126, "count" : 824, "type" : "VEC3", "max" : [0.50797301530838, 0.314148992300034, 0.319274008274078], "min" : [-0.50797301530838, 0, -0.273409008979797]}, {"bufferView" : 16, "byteOffset" : 12, "componentType" : 5126, "count" : 824, "type" : "VEC3", "max" : [0.999848008155823, 1, 0.991546988487244], "min" : [-0.999848008155823, -1, -0.993510007858276]}, {"bufferView" : 0, "byteOffset" : 25800, "componentType" : 5123, "count" : 1608, "type" : "SCALAR", "max" : [599], "min" : [0]}, {"bufferView" : 17, "byteOffset" : 0, "componentType" : 5126, "count" : 600, "type" : "VEC3", "max" : [0.483254998922348, 1.96983802318573, 0.295713990926743], "min" : [-0.483254998922348, 0.275458008050919, -0.192886993288994]}, {"bufferView" : 17, "byteOffset" : 12, "componentType" : 5126, "count" : 600, "type" : "VEC3", "max" : [1, 0.980786025524139, 0.998825013637543], "min" : [-1, -1, -0.999978005886078]}, {"bufferView" : 0, "byteOffset" : 29016, "componentType" : 5123, "count" : 2820, "type" : "SCALAR", "max" : [873], "min" : [0]}, {"bufferView" : 18, "byteOffset" : 0, "componentType" : 5126, "count" : 874, "type" : "VEC3", "max" : [0.661044001579285, 3.38814496994019, 0.217197999358177], "min" : [-0.661044001579285, 1.60978901386261, -0.184064999222755]}, {"bufferView" : 18, "byteOffset" : 12, "componentType" : 5126, "count" : 874, "type" : "VEC3", "max" : [1, 0.990199029445648, 0.999971985816956], "min" : [-1, -0.980785012245178, -0.999971985816956]}, {"bufferView" : 0, "byteOffset" : 34656, "componentType" : 5123, "count" : 564, "type" : "SCALAR", "max" : [161], "min" : [0]}, {"bufferView" : 19, "byteOffset" : 0, "componentType" : 5126, "count" : 162, "type" : "VEC3", "max" : [2.56484699249268, 4.91220188140869, -0.0411880016326904], "min" : [-2.56484699249268, 4.8153657913208, -0.199722006917]}, {"bufferView" : 19, "byteOffset" : 12, "componentType" : 5126, "count" : 162, "type" : "VEC3", "max" : [0.994446992874146, 0.988919973373413, 0.793892025947571], "min" : [-0.994446992874146, -0.994104027748108, -0.983730971813202]}, {"bufferView" : 0, "byteOffset" : 35784, "componentType" : 5123, "count" : 3252, "type" : "SCALAR", "max" : [1013], "min" : [0]}, {"bufferView" : 20, "byteOffset" : 0, "componentType" : 5126, "count" : 1014, "type" : "VEC3", "max" : [2.66723108291626, 4.96871709823608, -0.0833719968795776], "min" : [-2.66723108291626, 4.81895923614502, -0.359831988811493]}, {"bufferView" : 20, "byteOffset" : 12, "componentType" : 5126, "count" : 1014, "type" : "VEC3", "max" : [0.99973601102829, 0.996973991394043, 0.997457981109619], "min" : [-0.99973601102829, -0.997439980506897, -0.996771991252899]}, {"bufferView" : 0, "byteOffset" : 42288, "componentType" : 5123, "count" : 1512, "type" : "SCALAR", "max" : [523], "min" : [0]}, {"bufferView" : 21, "byteOffset" : 0, "componentType" : 5126, "count" : 524, "type" : "VEC3", "max" : [2.31887197494507, 4.96772289276123, -0.0964670032262802], "min" : [-2.31887197494507, 4.77808904647827, -0.355554014444351]}, {"bufferView" : 21, "byteOffset" : 12, "componentType" : 5126, "count" : 524, "type" : "VEC3", "max" : [1, 1, 0.99857497215271], "min" : [-1, -1, -1]}, {"bufferView" : 0, "byteOffset" : 45312, "componentType" : 5123, "count" : 1488, "type" : "SCALAR", "max" : [391], "min" : [0]}, {"bufferView" : 22, "byteOffset" : 0, "componentType" : 5126, "count" : 392, "type" : "VEC3", "max" : [0.274334013462067, 6.0266261100769, 0.373939007520676], "min" : [-0.274334013462067, 5.24764394760132, -0.409447997808456]}, {"bufferView" : 22, "byteOffset" : 12, "componentType" : 5126, "count" : 392, "type" : "VEC3", "max" : [0.998125970363617, 0.997654020786285, 0.999778985977173], "min" : [-0.998125970363617, -0.994029998779297, -0.997897982597351]}, {"bufferView" : 0, "byteOffset" : 48288, "componentType" : 5123, "count" : 2652, "type" : "SCALAR", "max" : [805], "min" : [0]}, {"bufferView" : 23, "byteOffset" : 0, "componentType" : 5126, "count" : 806, "type" : "VEC3", "max" : [1.65140497684479, 5.01323080062866, -0.0758100003004074], "min" : [-1.65140497684479, 4.76265382766724, -0.346166014671326]}, {"bufferView" : 23, "byteOffset" : 12, "componentType" : 5126, "count" : 806, "type" : "VEC3", "max" : [1, 1, 1], "min" : [-1, -1, -0.999979972839355]}, {"bufferView" : 0, "byteOffset" : 53592, "componentType" : 5123, "count" : 2352, "type" : "SCALAR", "max" : [625], "min" : [0]}, {"bufferView" : 24, "byteOffset" : 0, "componentType" : 5126, "count" : 626, "type" : "VEC3", "max" : [0.58654797077179, 5.05732917785645, 0.0520839989185333], "min" : [-0.58654797077179, 4.82755994796753, -0.270094007253647]}, {"bufferView" : 24, "byteOffset" : 12, "componentType" : 5126, "count" : 626, "type" : "VEC3", "max" : [0.999890983104706, 0.999121010303497, 0.98242199420929], "min" : [-0.999890983104706, -0.999997019767761, -0.997875988483429]}, {"bufferView" : 0, "byteOffset" : 58296, "componentType" : 5123, "count" : 3954, "type" : "SCALAR", "max" : [1123], "min" : [0]}, {"bufferView" : 25, "byteOffset" : 0, "componentType" : 5126, "count" : 1124, "type" : "VEC3", "max" : [0.466807991266251, 5.41528177261353, 0.415446996688843], "min" : [-0.466807991266251, 2.87164807319641, -0.510276019573212]}, {"bufferView" : 25, "byteOffset" : 12, "componentType" : 5126, "count" : 1124, "type" : "VEC3", "max" : [0.999994993209839, 0.999077975749969, 0.999934017658234], "min" : [-0.999994993209839, -0.999754011631012, -0.999947011470795]}], "asset" : {"generator" : "Aspose.3D 19.11", "version" : "2.0"}, "buffers" : [{"uri" : "buffer.bin", "byteLength" : 300260}], "bufferViews" : [{"buffer" : 0, "byteOffset" : 0, "byteLength" : 66204, "target" : 34963}, {"buffer" : 0, "byteOffset" : 66208, "byteLength" : 4464, "byteStride" : 24, "target" : 34962}, {"buffer" : 0, "byteOffset" : 70676, "byteLength" : 3888, "byteStride" : 24, "target" : 34962}, {"buffer" : 0, "byteOffset" : 74568, "byteLength" : 3888, "byteStride" : 24, "target" : 34962}, {"buffer" : 0, "byteOffset" : 78460, "byteLength" : 4464, "byteStride" : 24, "target" : 34962}, {"buffer" : 0, "byteOffset" : 82928, "byteLength" : 3888, "byteStride" : 24, "target" : 34962}, {"buffer" : 0, "byteOffset" : 86820, "byteLength" : 3888, "byteStride" : 24, "target" : 34962}, {"buffer" : 0, "byteOffset" : 90712, "byteLength" : 4464, "byteStride" : 24, "target" : 34962}, {"buffer" : 0, "byteOffset" : 95180, "byteLength" : 3888, "byteStride" : 24, "target" : 34962}, {"buffer" : 0, "byteOffset" : 99072, "byteLength" : 3888, "byteStride" : 24, "target" : 34962}, {"buffer" : 0, "byteOffset" : 102964, "byteLength" : 4464, "byteStride" : 24, "target" : 34962}, {"buffer" : 0, "byteOffset" : 107432, "byteLength" : 3888, "byteStride" : 24, "target" : 34962}, {"buffer" : 0, "byteOffset" : 111324, "byteLength" : 3888, "byteStride" : 24, "target" : 34962}, {"buffer" : 0, "byteOffset" : 115216, "byteLength" : 4464, "byteStride" : 24, "target" : 34962}, {"buffer" : 0, "byteOffset" : 119684, "byteLength" : 3888, "byteStride" : 24, "target" : 34962}, {"buffer" : 0, "byteOffset" : 123576, "byteLength" : 9936, "byteStride" : 24, "target" : 34962}, {"buffer" : 0, "byteOffset" : 133516, "byteLength" : 19776, "byteStride" : 24, "target" : 34962}, {"buffer" : 0, "byteOffset" : 153296, "byteLength" : 14400, "byteStride" : 24, "target" : 34962}, {"buffer" : 0, "byteOffset" : 167700, "byteLength" : 20976, "byteStride" : 24, "target" : 34962}, {"buffer" : 0, "byteOffset" : 188680, "byteLength" : 3888, "byteStride" : 24, "target" : 34962}, {"buffer" : 0, "byteOffset" : 192572, "byteLength" : 24336, "byteStride" : 24, "target" : 34962}, {"buffer" : 0, "byteOffset" : 216912, "byteLength" : 12576, "byteStride" : 24, "target" : 34962}, {"buffer" : 0, "byteOffset" : 229492, "byteLength" : 9408, "byteStride" : 24, "target" : 34962}, {"buffer" : 0, "byteOffset" : 238904, "byteLength" : 19344, "byteStride" : 24, "target" : 34962}, {"buffer" : 0, "byteOffset" : 258252, "byteLength" : 15024, "byteStride" : 24, "target" : 34962}, {"buffer" : 0, "byteOffset" : 273280, "byteLength" : 26976, "byteStride" : 24, "target" : 34962}], "meshes" : [{"primitives" : [{"attributes" : {"POSITION" : 1, "NORMAL" : 2}, "indices" : 0, "mode" : 4}]}, {"primitives" : [{"attributes" : {"POSITION" : 4, "NORMAL" : 5}, "indices" : 3, "mode" : 4}]}, {"primitives" : [{"attributes" : {"POSITION" : 7, "NORMAL" : 8}, "indices" : 6, "mode" : 4}]}, {"primitives" : [{"attributes" : {"POSITION" : 10, "NORMAL" : 11}, "indices" : 9, "mode" : 4}]}, {"primitives" : [{"attributes" : {"POSITION" : 13, "NORMAL" : 14}, "indices" : 12, "mode" : 4}]}, {"primitives" : [{"attributes" : {"POSITION" : 16, "NORMAL" : 17}, "indices" : 15, "mode" : 4}]}, {"primitives" : [{"attributes" : {"POSITION" : 19, "NORMAL" : 20}, "indices" : 18, "mode" : 4}]}, {"primitives" : [{"attributes" : {"POSITION" : 22, "NORMAL" : 23}, "indices" : 21, "mode" : 4}]}, {"primitives" : [{"attributes" : {"POSITION" : 25, "NORMAL" : 26}, "indices" : 24, "mode" : 4}]}, {"primitives" : [{"attributes" : {"POSITION" : 28, "NORMAL" : 29}, "indices" : 27, "mode" : 4}]}, {"primitives" : [{"attributes" : {"POSITION" : 31, "NORMAL" : 32}, "indices" : 30, "mode" : 4}]}, {"primitives" : [{"attributes" : {"POSITION" : 34, "NORMAL" : 35}, "indices" : 33, "mode" : 4}]}, {"primitives" : [{"attributes" : {"POSITION" : 37, "NORMAL" : 38}, "indices" : 36, "mode" : 4}]}, {"primitives" : [{"attributes" : {"POSITION" : 40, "NORMAL" : 41}, "indices" : 39, "mode" : 4}]}, {"primitives" : [{"attributes" : {"POSITION" : 43, "NORMAL" : 44}, "indices" : 42, "mode" : 4}]}, {"primitives" : [{"attributes" : {"POSITION" : 46, "NORMAL" : 47}, "indices" : 45, "mode" : 4}]}, {"primitives" : [{"attributes" : {"POSITION" : 49, "NORMAL" : 50}, "indices" : 48, "mode" : 4}]}, {"primitives" : [{"attributes" : {"POSITION" : 52, "NORMAL" : 53}, "indices" : 51, "mode" : 4}]}, {"primitives" : [{"attributes" : {"POSITION" : 55, "NORMAL" : 56}, "indices" : 54, "mode" : 4}]}, {"primitives" : [{"attributes" : {"POSITION" : 58, "NORMAL" : 59}, "indices" : 57, "mode" : 4}]}, {"primitives" : [{"attributes" : {"POSITION" : 61, "NORMAL" : 62}, "indices" : 60, "mode" : 4}]}, {"primitives" : [{"attributes" : {"POSITION" : 64, "NORMAL" : 65}, "indices" : 63, "mode" : 4}]}, {"primitives" : [{"attributes" : {"POSITION" : 67, "NORMAL" : 68}, "indices" : 66, "mode" : 4}]}, {"primitives" : [{"attributes" : {"POSITION" : 70, "NORMAL" : 71}, "indices" : 69, "mode" : 4}]}, {"primitives" : [{"attributes" : {"POSITION" : 73, "NORMAL" : 74}, "indices" : 72, "mode" : 4}]}], "nodes" : [{"matrix" : [100, 0, 0, 0, 0, 100, 0, 0, 0, 0, 100, 0, 0, 0, 0, 1], "mesh" : 0, "name" : "free3dmodel.025"}, {"matrix" : [100, 0, 0, 0, 0, 100, 0, 0, 0, 0, 100, 0, 0, 0, 0, 1], "mesh" : 1, "name" : "free3dmodel.024"}, {"matrix" : [100, 0, 0, 0, 0, 100, 0, 0, 0, 0, 100, 0, 0, 0, 0, 1], "mesh" : 2, "name" : "free3dmodel.023"}, {"matrix" : [100, 0, 0, 0, 0, 100, 0, 0, 0, 0, 100, 0, 0, 0, 0, 1], "mesh" : 3, "name" : "free3dmodel.022"}, {"matrix" : [100, 0, 0, 0, 0, 100, 0, 0, 0, 0, 100, 0, 0, 0, 0, 1], "mesh" : 4, "name" : "free3dmodel.021"}, {"matrix" : [100, 0, 0, 0, 0, 100, 0, 0, 0, 0, 100, 0, 0, 0, 0, 1], "mesh" : 5, "name" : "free3dmodel.020"}, {"matrix" : [100, 0, 0, 0, 0, 100, 0, 0, 0, 0, 100, 0, 0, 0, 0, 1], "mesh" : 6, "name" : "free3dmodel.019"}, {"matrix" : [100, 0, 0, 0, 0, 100, 0, 0, 0, 0, 100, 0, 0, 0, 0, 1], "mesh" : 7, "name" : "free3dmodel.018"}, {"matrix" : [100, 0, 0, 0, 0, 100, 0, 0, 0, 0, 100, 0, 0, 0, 0, 1], "mesh" : 8, "name" : "free3dmodel.017"}, {"matrix" : [100, 0, 0, 0, 0, 100, 0, 0, 0, 0, 100, 0, 0, 0, 0, 1], "mesh" : 9, "name" : "free3dmodel.016"}, {"matrix" : [100, 0, 0, 0, 0, 100, 0, 0, 0, 0, 100, 0, 0, 0, 0, 1], "mesh" : 10, "name" : "free3dmodel.015"}, {"matrix" : [100, 0, 0, 0, 0, 100, 0, 0, 0, 0, 100, 0, 0, 0, 0, 1], "mesh" : 11, "name" : "free3dmodel.014"}, {"matrix" : [100, 0, 0, 0, 0, 100, 0, 0, 0, 0, 100, 0, 0, 0, 0, 1], "mesh" : 12, "name" : "free3dmodel.013"}, {"matrix" : [100, 0, 0, 0, 0, 100, 0, 0, 0, 0, 100, 0, 0, 0, 0, 1], "mesh" : 13, "name" : "free3dmodel.012"}, {"matrix" : [100, 0, 0, 0, 0, 100, 0, 0, 0, 0, 100, 0, 0, 0, 0, 1], "mesh" : 14, "name" : "free3dmodel.011"}, {"matrix" : [100, 0, 0, 0, 0, 100, 0, 0, 0, 0, 100, 0, 0, 0, 0, 1], "mesh" : 15, "name" : "free3dmodel.010"}, {"matrix" : [100, 0, 0, 0, 0, 100, 0, 0, 0, 0, 100, 0, 0, 0, 0, 1], "mesh" : 16, "name" : "free3dmodel.009"}, {"matrix" : [100, 0, 0, 0, 0, 100, 0, 0, 0, 0, 100, 0, 0, 0, 0, 1], "mesh" : 17, "name" : "free3dmodel.008"}, {"matrix" : [100, 0, 0, 0, 0, 100, 0, 0, 0, 0, 100, 0, 0, 0, 0, 1], "mesh" : 18, "name" : "free3dmodel.007"}, {"matrix" : [100, 0, 0, 0, 0, 100, 0, 0, 0, 0, 100, 0, 0, 0, 0, 1], "mesh" : 19, "name" : "free3dmodel.006"}, {"matrix" : [100, 0, 0, 0, 0, 100, 0, 0, 0, 0, 100, 0, 0, 0, 0, 1], "mesh" : 20, "name" : "free3dmodel.005"}, {"matrix" : [100, 0, 0, 0, 0, 100, 0, 0, 0, 0, 100, 0, 0, 0, 0, 1], "mesh" : 21, "name" : "free3dmodel.004"}, {"matrix" : [100, 0, 0, 0, 0, 100, 0, 0, 0, 0, 100, 0, 0, 0, 0, 1], "mesh" : 22, "name" : "free3dmodel.003"}, {"matrix" : [100, 0, 0, 0, 0, 100, 0, 0, 0, 0, 100, 0, 0, 0, 0, 1], "mesh" : 23, "name" : "free3dmodel.002"}, {"matrix" : [100, 0, 0, 0, 0, 100, 0, 0, 0, 0, 100, 0, 0, 0, 0, 1], "mesh" : 24, "name" : "free3dmodel.001"}], "scene" : 0, "scenes" : [{"nodes" : [0, 1, 2, 3, 4, 5, 6, 7, 8, 9, 10, 11, 12, 13, 14, 15, 16, 17, 18, 19, 20, 21, 22, 23, 24]}]}